<svg viewBox="0 0 2980.46 632.43" xmlns="http://www.w3.org/2000/svg">
  <path fill="#FFFFFF" d="M1176.7,466.31h-221.32c-40.39,0-73.24-32.86-73.24-73.24v-221.34h41.35v221.34c0,17.59,14.31,31.89,31.89,31.89h221.32v41.35Z"/>
  <rect fill="#FFFFFF" x="2055.29" y="171.97" width="41.35" height="294.56"/>
  <rect fill="#FFFFFF" x="1238.72" y="171.97" width="41.35" height="294.56"/>
  <rect fill="#FFFFFF" x="1825.31" y="197.47" width="41.35" height="268.81"/>
  <rect fill="#FFFFFF" x="1698.7" y="171.71" width="294.56" height="41.35"/>
  <rect fill="#FFFFFF" x="2158.67" y="171.84" width="41.35" height="294.56"/>
  <path fill="#FFFFFF" d="M820.11,466.3h-147.31c-81.2,0-147.27-66.06-147.27-147.26s66.08-147.29,147.3-147.29h147.28v41.35h-147.28c-58.42,0-105.95,47.53-105.95,105.95s47.51,105.92,105.92,105.92h147.31v41.35Z"/>
  <path fill="#FFFFFF" d="M1383.46,466.21h-41.35v-74.26c0-40.39,32.86-73.24,73.24-73.24h127.06c29.18,0,52.91-23.74,52.91-52.91s-23.72-52.87-52.87-52.87h-200.35v-41.35h200.35c51.96,0,94.22,42.27,94.22,94.22s-42.29,94.26-94.26,94.26h-127.06c-17.59,0-31.89,14.31-31.89,31.89v74.26Z"/>
  <path fill="#FFFFFF" d="M2452.44,466.41l-157.11-122.11c-7.83-6.08-12.32-15.26-12.32-25.18,0-9.91,4.49-19.09,12.31-25.18l159.74-124.26h-67.35l-117.78,91.62c-17.97,13.98-28.28,35.06-28.27,57.83,0,22.77,10.32,43.84,28.29,57.81l115.1,89.47h67.38Z"/>
  <path fill="#FFFFFF" d="M316.23,210.28h147.28v-41.35h-147.28c-81.22,0-147.3,66.08-147.3,147.3s66.06,147.26,147.26,147.26h147.31v-41.35h-147.31c-51.3,0-94.19-36.67-103.86-85.17h209.83v-41.35h-209.85c9.62-48.59,52.55-85.34,103.92-85.34Z"/>
  <path fill="#FFFFFF" d="M2706.57,465.26h-84.53c-57.87,0-104.95-47.08-104.95-104.95v-84.53c0-57.87,47.08-104.95,104.95-104.95h84.53c57.87,0,104.95,47.08,104.95,104.95v84.53c0,57.87-47.08,104.95-104.95,104.95ZM2622.04,212.17c-35.07,0-63.6,28.53-63.6,63.6v84.53c0,35.07,28.53,63.6,63.6,63.6h84.53c35.07,0,63.6-28.53,63.6-63.6v-84.53c0-35.07-28.53-63.6-63.6-63.6h-84.53Z"/>
</svg>
